<svg width="100" height="100" viewBox="0 0 100 100" fill="none" xmlns="http://www.w3.org/2000/svg">
<g clip-path="url(#clip0_2309_497)">
<path d="M50.6381 69.4099C41.4539 78.763 32.4876 87.8948 23.5243 97.0186C23.1695 97.3767 22.791 97.7124 22.463 98.0849C21.1165 99.6307 19.5162 100.226 17.619 99.2159C15.6207 98.146 16.0614 96.4326 16.5538 94.7153C19.0609 85.9812 21.5598 77.244 24.0588 68.5069C25.1348 64.7363 26.2053 60.9681 27.3275 57.0091C20.2794 54.0342 13.4077 51.1376 6.53609 48.2411C5.51359 47.8071 4.47931 47.4053 3.45682 46.9713C1.58584 46.1763 -0.439807 45.4797 -0.213023 42.8439C0.0100143 40.2433 2.18832 40.1747 4.00634 39.7324C12.2261 37.7172 20.4724 35.8166 28.65 33.6674C29.8354 33.3581 31.2729 32.124 31.664 30.9946C34.6409 22.4097 37.387 13.7449 40.2136 5.10963C40.4939 4.24522 40.7157 3.34113 41.1399 2.55685C42.7023 -0.337629 45.5988 -0.498843 47.3387 2.25994C52.4498 10.3596 57.5883 18.4466 62.5257 26.6468C64.1224 29.2984 65.8601 30.5692 69.1651 30.5258C77.5266 30.4146 85.9033 30.7971 94.2725 30.9762C95.0768 30.9972 96.0275 30.7433 96.6597 31.0845C97.9831 31.7929 99.7102 32.5946 100.168 33.7843C100.506 34.6561 99.4213 36.6947 98.4092 37.3776C91.6557 41.9647 84.8059 46.4161 77.8682 50.7212C75.4331 52.2376 74.3731 53.537 75.4485 56.6773C78.8098 66.4898 81.7356 76.4574 84.8969 86.3425C85.5073 88.2495 85.7369 90.2998 83.8557 91.1386C82.628 91.6879 80.4067 91.3757 79.2736 90.5591C70.5073 84.2677 61.8968 77.7505 53.2408 71.3079C52.4371 70.7124 51.6251 70.1274 50.63 69.407L50.6381 69.4099ZM26.4922 84.0511C26.6954 84.1438 26.8987 84.2366 27.0994 84.3238C33.7834 77.4988 40.4594 70.6709 47.1459 63.8514C49.8032 61.1436 50.8467 61.047 53.871 63.2637C60.4579 68.0951 67.0224 72.9502 73.6094 77.7815C74.2461 78.2475 74.9503 78.6287 76.0922 79.3345C74.7098 74.9276 73.5246 71.1906 72.3613 67.4433C71.1656 63.5975 70.118 59.6965 68.7774 55.8979C66.8742 50.4973 67.0356 49.895 71.8465 46.8497C76.5746 43.8561 81.251 40.7798 86.6057 37.3087C85.2253 37.1542 84.6565 37.0507 84.0879 37.0339C77.8371 36.8875 71.5912 36.6654 65.3416 36.6654C62.6855 36.6684 60.6353 35.9765 59.2304 33.6233C57.1669 30.1665 55.0649 26.7277 52.935 23.3151C50.5234 19.4389 48.0594 15.5936 45.2059 11.081C43.3717 17.0327 41.7635 22.2187 40.1687 27.405C36.4878 39.3676 36.3361 39.458 24.0525 41.6081C20.7725 42.1808 17.5558 43.0915 14.3058 43.8439C19.7192 46.8357 25.0802 49.124 30.4442 51.4042C34.9411 53.312 35.111 53.7073 33.7541 58.4562C31.3182 66.9837 28.912 75.5176 26.4922 84.0511Z" fill="#E3097E"/>
</g>
<defs>
<clipPath id="clip0_2309_497">
<rect width="100" height="100" fill="white"/>
</clipPath>
</defs>
</svg>
