<svg width="86" height="87" viewBox="0 0 86 87" fill="none" xmlns="http://www.w3.org/2000/svg">
<g clip-path="url(#clip0_2309_499)">
<path fill-rule="evenodd" clip-rule="evenodd" d="M52.3603 4.19022C54.0218 3.94402 55.6314 4.53913 56.947 5.74821C59.4572 8.05531 60.2293 10.9118 60.2559 14.7668C60.2754 17.5765 59.8949 21.1362 59.4104 25.668C59.249 27.1785 59.076 28.797 58.9024 30.5317C57.6354 43.1924 62.9489 53.4738 66.913 61.1444C67.1899 61.6801 67.4602 62.2031 67.7212 62.7133C68.1134 63.4801 67.8122 64.4197 67.0473 64.8155C66.2823 65.2113 65.3413 64.9145 64.9419 64.1513C64.0026 62.3564 62.9064 60.335 61.7248 58.1563C59.3845 53.8408 56.7094 48.9082 54.2564 43.8963C50.5639 36.3518 47.2433 28.3777 46.1895 21.6306C45.1424 14.927 46.1205 9.87692 48.2341 6.93683C49.3018 5.45157 50.7235 4.43275 52.3603 4.19022ZM50.7749 8.76341C49.3353 10.766 48.2983 14.8549 49.2812 21.1476C50.1622 26.7877 52.801 33.5395 56.0092 40.323C55.5594 37.1396 55.4337 33.7669 55.7887 30.2201C55.9726 28.3821 56.1521 26.7016 56.3168 25.1593C56.7923 20.7067 57.1449 17.4056 57.1268 14.7885C57.1031 11.3738 56.4419 9.53419 54.8294 8.05217C54.0836 7.3667 53.3897 7.2011 52.8189 7.28568C52.2234 7.37392 51.4838 7.77734 50.7749 8.76341Z" fill="#E3097E"/>
<path fill-rule="evenodd" clip-rule="evenodd" d="M54.1115 67.8564C59.5102 69.6408 63.9093 72.1201 66.2062 73.9635C66.8607 74.4887 66.9843 75.4368 66.4863 76.1123C65.9883 76.7877 65.0461 76.95 64.3508 76.4801C56.8533 71.4127 50.2878 70.5842 45.0583 71.2655C39.977 71.9275 36.0623 74.0216 33.5999 75.3389C33.5012 75.3917 33.4048 75.4432 33.3108 75.4934C32.4276 75.9646 31.4288 76.5712 30.3181 77.2458C29.9627 77.4617 29.5958 77.6845 29.2176 77.9121C27.6926 78.8297 26.0213 79.8001 24.3703 80.554C22.7396 81.2987 20.9952 81.8961 19.3394 81.956C17.6102 82.0186 15.9123 81.4876 14.6622 79.9415C14.0236 79.1518 13.6698 78.236 13.6994 77.2437C13.728 76.28 14.113 75.4107 14.6416 74.6677C15.6716 73.22 17.4675 71.9398 19.5346 70.8451C23.7265 68.6251 29.7626 66.7924 35.5733 65.9205M54.1115 67.8564C48.7003 66.0679 42.15 64.9324 35.5733 65.9205L54.1115 67.8564ZM41.7169 68.7029C39.837 68.6397 37.9331 68.7303 36.0383 69.015C30.484 69.8484 24.8052 71.5948 20.9992 73.6104C19.0674 74.6335 17.7936 75.6353 17.1914 76.4817C16.904 76.8857 16.8323 77.1665 16.8272 77.3368C16.823 77.4785 16.8584 77.6808 17.0955 77.974C17.5968 78.594 18.2549 78.864 19.2262 78.8288C20.271 78.791 21.5716 78.3919 23.0704 77.7075C24.5488 77.0324 26.0912 76.1412 27.6043 75.2308C27.9477 75.0241 28.292 74.8149 28.6342 74.6071C29.7643 73.9206 30.8701 73.2488 31.8378 72.7325C31.9432 72.6763 32.0526 72.6177 32.1658 72.557C34.1974 71.4689 37.4831 69.709 41.7169 68.7029Z" fill="#E3097E"/>
<path d="M35.4118 45.6301C31.9728 44.3522 28.4394 43.6606 25.6463 43.7879C24.2599 43.8511 22.9133 44.1218 21.8452 44.7504C20.7079 45.4198 19.8985 46.5014 19.7983 47.9623C19.702 49.3658 19.9832 50.6403 20.699 51.6976C21.4098 52.7477 22.4508 53.438 23.6175 53.8597C25.8883 54.6803 28.8947 54.5824 32.0262 53.9684C32.8089 53.8149 33.5331 53.657 34.2158 53.5081C35.9814 53.1232 37.4697 52.7987 38.9764 52.7672C40.8846 52.7273 42.7173 53.1837 44.7819 54.8908C45.6934 55.7005 46.4208 56.4462 46.9424 57.0575C47.5032 57.7146 48.4903 57.793 49.1477 57.2326C49.805 56.6722 49.8839 55.6851 49.3239 55.0275L49.3228 55.0263C48.4818 54.0388 47.6505 53.2074 46.8198 52.5156C44.1461 50.1484 40.1711 47.3985 35.4118 45.6301Z" fill="#E3097E"/>
</g>
<defs>
<clipPath id="clip0_2309_499">
<rect width="80" height="80" fill="white" transform="translate(5.46875 0.856445) rotate(3.92398)"/>
</clipPath>
</defs>
</svg>
